<svg xmlns="http://www.w3.org/2000/svg" viewBox="0 0 200 200">
  <circle cx="100" cy="100" r="98" fill="#060a14"/>
  <g opacity="0.6">
    <rect x="18" y="62" width="22" height="3" rx="1.5" fill="#64748b"/>
    <rect x="24" y="70" width="16" height="3" rx="1.5" fill="#7dd3fc"/>
    <rect x="24" y="78" width="12" height="3" rx="1.5" fill="#86efac"/>
    <rect x="24" y="86" width="20" height="3" rx="1.5" fill="#fbbf24"/>
    <rect x="18" y="94" width="22" height="3" rx="1.5" fill="#64748b"/>
    <rect x="24" y="102" width="14" height="3" rx="1.5" fill="#7dd3fc"/>
    <rect x="24" y="110" width="18" height="3" rx="1.5" fill="#86efac"/>
    <rect x="18" y="118" width="22" height="3" rx="1.5" fill="#64748b"/>
    <rect x="24" y="126" width="10" height="3" rx="1.5" fill="#fbbf24"/>
  </g>
  <line x1="52" y1="96" x2="66" y2="96" stroke="#94a3b8" stroke-width="1.5" stroke-linecap="round" opacity="0.4"/>
  <g transform="translate(88, 96)">
    <rect x="-20" y="-22" width="40" height="44" rx="6" fill="#0c1631" stroke="#1e3a8a" stroke-width="1.2"/>
    <path d="M-8,-10 L2,0 L-8,10" fill="none" stroke="#38bdf8" stroke-width="2.5" stroke-linecap="round" stroke-linejoin="round" opacity="0.9"/>
    <path d="M2,-10 L12,0 L2,10" fill="none" stroke="#0ea5e9" stroke-width="2.5" stroke-linecap="round" stroke-linejoin="round" opacity="0.6"/>
  </g>
  <line x1="110" y1="80" x2="138" y2="46" stroke="#38bdf8" stroke-width="1.8" stroke-linecap="round" opacity="0.75"/>
  <g transform="translate(150, 38)">
    <circle cx="0" cy="0" r="2.5" fill="#38bdf8"/>
    <ellipse cx="0" cy="0" rx="10" ry="3.8" fill="none" stroke="#38bdf8" stroke-width="0.9" opacity="0.7"/>
    <ellipse cx="0" cy="0" rx="10" ry="3.8" fill="none" stroke="#38bdf8" stroke-width="0.9" opacity="0.7" transform="rotate(60)"/>
    <ellipse cx="0" cy="0" rx="10" ry="3.8" fill="none" stroke="#38bdf8" stroke-width="0.9" opacity="0.7" transform="rotate(-60)"/>
  </g>
  <line x1="110" y1="88" x2="140" y2="72" stroke="#4ade80" stroke-width="1.8" stroke-linecap="round" opacity="0.75"/>
  <g transform="translate(152, 68)">
    <path d="M0,-9 L7,5 L0,1 L-7,5 Z" fill="none" stroke="#4ade80" stroke-width="1.3"/>
  </g>
  <line x1="110" y1="96" x2="142" y2="98" stroke="#a78bfa" stroke-width="1.8" stroke-linecap="round" opacity="0.75"/>
  <g transform="translate(154, 98)">
    <polygon points="0,-8 7,-4 7,4 0,8 -7,4 -7,-4" fill="none" stroke="#a78bfa" stroke-width="1.2"/>
  </g>
  <line x1="110" y1="104" x2="140" y2="122" stroke="#f87171" stroke-width="1.8" stroke-linecap="round" opacity="0.75"/>
  <g transform="translate(152, 126)">
    <path d="M0,-9 L8,7 L-8,7 Z" fill="none" stroke="#f87171" stroke-width="1.3"/>
    <line x1="-4.5" y1="3" x2="4.5" y2="3" stroke="#f87171" stroke-width="0.8" opacity="0.6"/>
  </g>
  <line x1="110" y1="112" x2="138" y2="150" stroke="#fb923c" stroke-width="1.8" stroke-linecap="round" opacity="0.75"/>
  <g transform="translate(150, 158)">
    <path d="M3,-9 C9,-7 9,-1 3,1 C-3,3 -3,7 3,9" fill="none" stroke="#fb923c" stroke-width="2" stroke-linecap="round"/>
  </g>
</svg>
